<mxfile host="app.diagrams.net" agent="Mozilla/5.0 (Windows NT 10.0; Win64; x64) AppleWebKit/537.36 (KHTML, like Gecko) Chrome/130.0.0.0 Safari/537.36" version="24.8.3">
  <diagram name="Page-1" id="g8JWpiVLjDrhal_QEQMJ">
    <mxGraphModel dx="1120" dy="460" grid="1" gridSize="10" guides="1" tooltips="1" connect="1" arrows="1" fold="1" page="1" pageScale="1" pageWidth="827" pageHeight="1169" math="0" shadow="0">
      <root>
        <mxCell id="0" />
        <mxCell id="1" parent="0" />
        <mxCell id="kH1kJb58pXDTFEbu5M2O-5" value="" style="edgeStyle=orthogonalEdgeStyle;rounded=0;orthogonalLoop=1;jettySize=auto;html=1;" edge="1" parent="1" source="kH1kJb58pXDTFEbu5M2O-1" target="kH1kJb58pXDTFEbu5M2O-4">
          <mxGeometry relative="1" as="geometry" />
        </mxCell>
        <mxCell id="kH1kJb58pXDTFEbu5M2O-1" value="membuka web" style="rounded=0;whiteSpace=wrap;html=1;" vertex="1" parent="1">
          <mxGeometry x="120" y="140" width="120" height="60" as="geometry" />
        </mxCell>
        <mxCell id="kH1kJb58pXDTFEbu5M2O-7" value="" style="edgeStyle=orthogonalEdgeStyle;rounded=0;orthogonalLoop=1;jettySize=auto;html=1;" edge="1" parent="1" source="kH1kJb58pXDTFEbu5M2O-4" target="kH1kJb58pXDTFEbu5M2O-6">
          <mxGeometry relative="1" as="geometry" />
        </mxCell>
        <mxCell id="kH1kJb58pXDTFEbu5M2O-9" value="" style="edgeStyle=orthogonalEdgeStyle;rounded=0;orthogonalLoop=1;jettySize=auto;html=1;" edge="1" parent="1" source="kH1kJb58pXDTFEbu5M2O-4" target="kH1kJb58pXDTFEbu5M2O-8">
          <mxGeometry relative="1" as="geometry" />
        </mxCell>
        <mxCell id="kH1kJb58pXDTFEbu5M2O-4" value="cek sudah login atau belum" style="rhombus;whiteSpace=wrap;html=1;rounded=0;" vertex="1" parent="1">
          <mxGeometry x="340" y="90" width="140" height="120" as="geometry" />
        </mxCell>
        <mxCell id="kH1kJb58pXDTFEbu5M2O-6" value="diarahkan ke halaman list member (action=list_member)" style="whiteSpace=wrap;html=1;rounded=0;" vertex="1" parent="1">
          <mxGeometry x="570" y="120" width="120" height="60" as="geometry" />
        </mxCell>
        <mxCell id="kH1kJb58pXDTFEbu5M2O-13" value="" style="edgeStyle=orthogonalEdgeStyle;rounded=0;orthogonalLoop=1;jettySize=auto;html=1;" edge="1" parent="1" source="kH1kJb58pXDTFEbu5M2O-8" target="kH1kJb58pXDTFEbu5M2O-12">
          <mxGeometry relative="1" as="geometry" />
        </mxCell>
        <mxCell id="kH1kJb58pXDTFEbu5M2O-8" value="diarahkan ke halaman login terlebih dahulu" style="whiteSpace=wrap;html=1;rounded=0;" vertex="1" parent="1">
          <mxGeometry x="350" y="320" width="120" height="60" as="geometry" />
        </mxCell>
        <mxCell id="kH1kJb58pXDTFEbu5M2O-10" value="YA" style="text;html=1;align=center;verticalAlign=middle;whiteSpace=wrap;rounded=0;" vertex="1" parent="1">
          <mxGeometry x="480" y="110" width="60" height="30" as="geometry" />
        </mxCell>
        <mxCell id="kH1kJb58pXDTFEbu5M2O-11" value="TIDAK" style="text;html=1;align=center;verticalAlign=middle;whiteSpace=wrap;rounded=0;" vertex="1" parent="1">
          <mxGeometry x="351" y="210" width="60" height="30" as="geometry" />
        </mxCell>
        <mxCell id="kH1kJb58pXDTFEbu5M2O-15" value="" style="edgeStyle=orthogonalEdgeStyle;rounded=0;orthogonalLoop=1;jettySize=auto;html=1;" edge="1" parent="1" source="kH1kJb58pXDTFEbu5M2O-12" target="kH1kJb58pXDTFEbu5M2O-14">
          <mxGeometry relative="1" as="geometry" />
        </mxCell>
        <mxCell id="kH1kJb58pXDTFEbu5M2O-12" value="sek data kredensial admin" style="rounded=0;whiteSpace=wrap;html=1;" vertex="1" parent="1">
          <mxGeometry x="350" y="460" width="120" height="60" as="geometry" />
        </mxCell>
        <mxCell id="kH1kJb58pXDTFEbu5M2O-17" value="" style="edgeStyle=orthogonalEdgeStyle;rounded=0;orthogonalLoop=1;jettySize=auto;html=1;" edge="1" parent="1" source="kH1kJb58pXDTFEbu5M2O-14" target="kH1kJb58pXDTFEbu5M2O-8">
          <mxGeometry relative="1" as="geometry">
            <mxPoint x="510" y="630" as="targetPoint" />
            <Array as="points">
              <mxPoint x="600" y="630" />
              <mxPoint x="600" y="350" />
            </Array>
          </mxGeometry>
        </mxCell>
        <mxCell id="kH1kJb58pXDTFEbu5M2O-19" value="" style="edgeStyle=orthogonalEdgeStyle;rounded=0;orthogonalLoop=1;jettySize=auto;html=1;entryX=0.75;entryY=1;entryDx=0;entryDy=0;" edge="1" parent="1" source="kH1kJb58pXDTFEbu5M2O-22" target="kH1kJb58pXDTFEbu5M2O-6">
          <mxGeometry relative="1" as="geometry">
            <mxPoint x="700" y="500" as="targetPoint" />
            <Array as="points">
              <mxPoint x="701" y="750" />
              <mxPoint x="701" y="500" />
              <mxPoint x="660" y="500" />
            </Array>
          </mxGeometry>
        </mxCell>
        <mxCell id="kH1kJb58pXDTFEbu5M2O-25" value="" style="edgeStyle=orthogonalEdgeStyle;rounded=0;orthogonalLoop=1;jettySize=auto;html=1;" edge="1" parent="1" source="kH1kJb58pXDTFEbu5M2O-14" target="kH1kJb58pXDTFEbu5M2O-22">
          <mxGeometry relative="1" as="geometry">
            <mxPoint x="330" y="584" as="targetPoint" />
          </mxGeometry>
        </mxCell>
        <mxCell id="kH1kJb58pXDTFEbu5M2O-14" value="valid ?" style="rhombus;whiteSpace=wrap;html=1;rounded=0;" vertex="1" parent="1">
          <mxGeometry x="370" y="590" width="80" height="80" as="geometry" />
        </mxCell>
        <mxCell id="kH1kJb58pXDTFEbu5M2O-20" value="TIDAK" style="text;html=1;align=center;verticalAlign=middle;whiteSpace=wrap;rounded=0;" vertex="1" parent="1">
          <mxGeometry x="450" y="585" width="60" height="30" as="geometry" />
        </mxCell>
        <mxCell id="kH1kJb58pXDTFEbu5M2O-22" value="Buat session dengan username dan password" style="rounded=0;whiteSpace=wrap;html=1;" vertex="1" parent="1">
          <mxGeometry x="180" y="710" width="120" height="60" as="geometry" />
        </mxCell>
        <mxCell id="kH1kJb58pXDTFEbu5M2O-26" value="YA" style="text;html=1;align=center;verticalAlign=middle;whiteSpace=wrap;rounded=0;" vertex="1" parent="1">
          <mxGeometry x="290" y="590" width="60" height="30" as="geometry" />
        </mxCell>
      </root>
    </mxGraphModel>
  </diagram>
</mxfile>
